<?xml version="1.0" encoding="UTF-8" standalone="no"?>
<!-- Created with Inkscape (http://www.inkscape.org/) -->

<svg
   width="400mm"
   height="120mm"
   viewBox="0 0 400 120"
   version="1.1"
   id="svg1"
   xmlns="http://www.w3.org/2000/svg"
   xmlns:svg="http://www.w3.org/2000/svg">
  <defs
     id="defs1" />
  <g
     id="layer1">
    <rect
       style="fill:#f9f6ed;fill-opacity:1;stroke-width:5.00244;stroke-linejoin:round;paint-order:stroke fill markers"
       id="rect1"
       width="186.34795"
       height="58.0317"
       x="106.82603"
       y="30.98415"
       ry="17.465128" />
    <path
       style="font-size:48.6833px;line-height:0;font-family:'Noto Mono for Powerline';-inkscape-font-specification:'Noto Mono for Powerline';text-align:center;letter-spacing:3.96875px;text-anchor:middle;fill:#1a1918;stroke-width:3.04406;stroke-linejoin:round;paint-order:stroke fill markers"
       d="m 132.77703,68.311047 -14.02394,-6.852435 v -1.549775 l 14.02394,-6.852435 v 2.431019 l -10.86362,5.196303 10.86362,5.196303 z m 18.35354,3.357844 V 60.926826 q 0,-3.950406 -3.61615,-3.950406 -4.66452,0 -4.66452,6.04716 v 8.645311 h -2.76527 V 54.986023 h 2.23349 l 0.41023,2.248693 h 0.15195 q 1.56496,-2.55257 5.10513,-2.55257 5.91042,0 5.91042,6.092741 v 10.894004 z m 17.35074,-23.550497 q 1.61054,0 1.61054,1.732101 0,0.881245 -0.48619,1.321867 -0.47102,0.425428 -1.12435,0.425428 -1.62575,0 -1.62575,-1.747295 0,-1.732101 1.62575,-1.732101 z m -1.39784,9.055546 -4.08715,-0.319071 v -1.868846 h 6.85243 v 14.510145 l 5.34825,0.303878 v 1.868845 h -13.34022 v -1.868845 l 5.22669,-0.303878 z m 20.73897,5.940803 -5.97119,-8.12872 h 3.14513 l 4.40622,6.229486 4.42142,-6.229486 h 3.14513 l -6.00158,8.12872 6.27507,8.554148 h -3.12994 l -4.7101,-6.624527 -4.72529,6.624527 h -3.14513 z m 28.95886,6.275068 v 2.096754 q -1.9752,0.486204 -3.82885,0.486204 -5.50018,0 -5.50018,-5.226691 v -9.678495 h -4.05677 v -1.428224 l 4.05677,-0.744499 1.16992,-4.360641 h 1.59536 v 4.451804 h 6.65491 v 2.08156 h -6.65491 v 9.678495 q 0,2.962805 2.91722,2.962805 1.41303,0 3.64653,-0.319072 z m 20.55664,2.27908 V 60.926826 q 0,-2.218305 -0.41023,-3.084355 -0.39504,-0.866051 -1.33706,-0.866051 -1.32187,0 -1.92963,1.261091 -0.59256,1.261091 -0.59256,4.223896 v 9.207484 h -2.44621 V 60.926826 q 0,-3.950406 -1.89923,-3.950406 -1.27629,0 -1.82326,1.21551 -0.54699,1.200315 -0.54699,4.83165 v 8.645311 h -2.4614 V 54.986023 h 1.92962 l 0.41024,2.248693 h 0.15193 q 1.01799,-2.55257 3.05397,-2.55257 2.4766,0 3.23629,2.765284 h 0.0912 q 1.15473,-2.765284 3.32746,-2.765284 1.94481,0 2.82605,1.413029 0.88125,1.397836 0.88125,4.679712 v 10.894004 z m 14.44872,-21.468937 -4.07196,-0.319071 v -1.853652 h 6.85243 v 21.468937 l 5.34824,0.303878 v 1.868845 h -13.3554 v -1.868845 l 5.22669,-0.303878 z m 15.43631,15.680073 10.84842,-5.196303 -10.84842,-5.196303 v -2.431019 l 14.02394,6.852435 v 1.549775 l -14.02394,6.852435 z"
       id="text1"
       aria-label="&lt;nixtml&gt;" />
  </g>
</svg>
